<svg version="1.2" xmlns="http://www.w3.org/2000/svg" viewBox="0 0 400 400" width="400" height="400"><style></style><path  d="m119.4 116.8c0-1.2 0-2.1 0-3 0-6.6-3-10.8-9-12-4.8 12.3-8.4 27.6-11.1 45.6-2.7 20.7-4.5 36.3-6 46.8-4.8 30.6-8.7 56.1-11.4 76.8-3 23.7-4.5 36.6-4.5 38.7 0 4.8 3.3 7.5 10.5 7.5 3.9 0 6.9-0.9 8.4-2.7zm202.2 184.2c-9.6-7.2-15-11.1-16.2-11.4-13.2-3.6-22.5-5.4-27.3-6.9-37.5-9.6-58.8-15-63.9-15.9-33.9-6.6-60.3-16.8-79.2-30.3 60.9-61.2 104.7-103.8 132.9-126.6 10.5-8.4 18.6-13.2 23.1-15.9v-10.8c-1.8-0.3-3.3-0.9-4.5-2.1-9.6 4.5-20.7 11.7-32.7 21.6-7.2 5.7-17.4 14.4-30 26.1-12 11.1-20.1 18.3-24 21.9-3.6 4.5-6 7.8-7.5 10.2-1.5 1.8-16.2 14.7-44.1 38.4-25.5 21.9-38.4 33.6-38.4 35.1 0 7.2 10.2 16.5 30.6 27.3 17.1 9.3 30.6 15 40.8 17.1 27.6 6.3 46.8 10.8 57.3 13.5 3 0.6 11.4 1.8 24.9 3 10.5 0.9 18.6 2.1 24.6 3.9 1.5 0.3 6 2.1 13.2 4.8 6.3 2.7 10.2 3.9 12 3.9 3.3 0 6.3-2.4 8.4-6.9z"/></svg>