<svg version="1.2" xmlns="http://www.w3.org/2000/svg" viewBox="0 0 40 40" width="40" height="40"><style>:root { --logo-color: currentColor; }</style><path fill="var(--logo-color)" d="m11.94 11.68c0-0.12 0-0.21 0-0.3 0-0.66-0.3-1.08-0.9-1.2-0.48 1.23-0.84 2.76-1.11 4.56-0.27 2.07-0.45 3.63-0.6 4.68-0.48 3.06-0.87 5.61-1.14 7.68-0.3 2.37-0.45 3.66-0.45 3.87 0 0.48 0.33 0.75 1.05 0.75 0.39 0 0.69-0.09 0.84-0.27zm20.22 18.42c-0.96-0.72-1.5-1.11-1.62-1.14-1.32-0.36-2.25-0.54-2.73-0.69-3.75-0.96-5.88-1.5-6.39-1.59-3.39-0.66-6.03-1.68-7.92-3.03 6.09-6.12 10.47-10.38 13.29-12.66 1.05-0.84 1.86-1.32 2.31-1.59v-1.08c-0.18-0.03-0.33-0.09-0.45-0.21-0.96 0.45-2.07 1.17-3.27 2.16-0.72 0.57-1.74 1.44-3 2.61-1.2 1.11-2.01 1.83-2.4 2.19-0.36 0.45-0.6 0.78-0.75 1.02-0.15 0.18-1.62 1.47-4.41 3.84-2.55 2.19-3.84 3.36-3.84 3.51 0 0.72 1.02 1.65 3.06 2.73 1.71 0.93 3.06 1.5 4.08 1.71 2.76 0.63 4.68 1.08 5.73 1.35 0.3 0.06 1.14 0.18 2.49 0.3 1.05 0.09 1.86 0.21 2.46 0.39 0.15 0.03 0.6 0.21 1.32 0.48 0.63 0.27 1.02 0.39 1.2 0.39 0.33 0 0.63-0.24 0.84-0.69z"/></svg>